<?xml version="1.0" encoding="UTF-8" standalone="no"?>
<!-- Created with Inkscape (http://www.inkscape.org/) -->

<svg
   xmlns:dc="http://purl.org/dc/elements/1.1/"
   xmlns:cc="http://creativecommons.org/ns#"
   xmlns:rdf="http://www.w3.org/1999/02/22-rdf-syntax-ns#"
   xmlns:svg="http://www.w3.org/2000/svg"
   xmlns="http://www.w3.org/2000/svg"
   xmlns:sodipodi="http://sodipodi.sourceforge.net/DTD/sodipodi-0.dtd"
   xmlns:inkscape="http://www.inkscape.org/namespaces/inkscape"
   width="190"
   height="30"
   viewBox="0 0 190 30.000001"
   id="svg2"
   version="1.1"
   inkscape:version="0.91 r13725"
   sodipodi:docname="LogoText.svg">
  <defs
     id="defs4" />
  <sodipodi:namedview
     id="base"
     pagecolor="#ffffff"
     bordercolor="#666666"
     borderopacity="1.0"
     inkscape:pageopacity="0.0"
     inkscape:pageshadow="2"
     inkscape:zoom="2.8"
     inkscape:cx="143.81912"
     inkscape:cy="35.270614"
     inkscape:document-units="px"
     inkscape:current-layer="layer1"
     showgrid="false"
     units="px"
     inkscape:window-width="1366"
     inkscape:window-height="703"
     inkscape:window-x="0"
     inkscape:window-y="0"
     inkscape:window-maximized="1" />
  <metadata
     id="metadata7">
    <rdf:RDF>
      <cc:Work
         rdf:about="">
        <dc:format>image/svg+xml</dc:format>
        <dc:type
           rdf:resource="http://purl.org/dc/dcmitype/StillImage" />
        <dc:title />
      </cc:Work>
    </rdf:RDF>
  </metadata>
  <g
     inkscape:label="Capa 1"
     inkscape:groupmode="layer"
     id="layer1"
     transform="translate(0,-1022.3622)">
    <flowRoot
       xml:space="preserve"
       id="flowRoot4144"
       style="font-style:normal;font-weight:normal;font-size:40px;line-height:125%;font-family:sans-serif;letter-spacing:1.00000006px;word-spacing:0px;fill:#000000;fill-opacity:1;stroke:none;stroke-width:1px;stroke-linecap:butt;stroke-linejoin:miter;stroke-opacity:1;"
       transform="translate(-7.629395e-6,1022.3622)"><flowRegion
         id="flowRegion4146"><rect
           id="rect4148"
           width="121.78571"
           height="94.285713"
           x="-12.857142"
           y="-15"
           style="letter-spacing:1.00000006px;" /></flowRegion><flowPara
         id="flowPara4150" /></flowRoot>    <g
       style="font-style:normal;font-weight:normal;font-size:28.46327019px;line-height:125%;font-family:sans-serif;letter-spacing:-10.48871613px;word-spacing:0px;fill:#ececec;fill-opacity:1;stroke:none;stroke-width:1px;stroke-linecap:butt;stroke-linejoin:miter;stroke-opacity:1"
       id="text4152">
      <path
         d="m 1.9801442,1027.2236 2.8352086,0 4.3639975,17.5393 4.3500997,-17.5393 3.154864,0 4.363998,17.5393 4.350099,-17.5393 2.849107,0 -5.211781,20.7498 -3.530112,0 -4.377896,-18.0119 -4.41959,18.0119 -3.5301124,0 -5.1978824,-20.7498 z"
         style="letter-spacing:0.71158189px;fill:#ececec"
         id="path4157" />
      <path
         d="m 44.205295,1039.5512 0,1.2508 -11.757777,0 q 0.166777,2.6406 1.584381,4.0304 1.431503,1.3759 3.974852,1.3759 1.473196,0 2.849106,-0.3613 1.389808,-0.3614 2.75182,-1.0841 l 0,2.4183 q -1.37591,0.5837 -2.82131,0.8895 -1.445401,0.3057 -2.932495,0.3057 -3.724686,0 -5.906685,-2.1681 -2.1681,-2.1681 -2.1681,-5.865 0,-3.8219 2.056916,-6.0595 2.070814,-2.2515 5.57313,-2.2515 3.140966,0 4.961615,2.0291 1.834547,2.0152 1.834547,5.4898 z m -2.557247,-0.7505 q -0.0278,-2.0987 -1.181337,-3.3495 -1.139643,-1.2508 -3.029782,-1.2508 -2.140304,0 -3.432826,1.2091 -1.278623,1.2092 -1.473196,3.4051 l 9.117141,-0.014 z"
         style="letter-spacing:0.71158189px;fill:#ececec"
         id="path4159" />
      <path
         d="m 60.288152,1040.2044 q 0,-2.8213 -1.167439,-4.4196 -1.153541,-1.6122 -3.18266,-1.6122 -2.02912,0 -3.196559,1.6122 -1.153541,1.5983 -1.153541,4.4196 0,2.8213 1.153541,4.4334 1.167439,1.5983 3.196559,1.5983 2.029119,0 3.18266,-1.5983 1.167439,-1.6121 1.167439,-4.4334 z m -8.700199,-5.4342 q 0.806089,-1.3898 2.02912,-2.0569 1.236929,-0.681 2.946393,-0.681 2.835209,0 4.600265,2.2515 1.778954,2.2515 1.778954,5.9206 0,3.6691 -1.778954,5.9205 -1.765056,2.2515 -4.600265,2.2515 -1.709464,0 -2.946393,-0.6671 -1.223031,-0.681 -2.02912,-2.0708 l 0,2.3349 -2.571145,0 0,-21.6254 2.571145,0 0,8.4222 z"
         style="letter-spacing:0.71158189px;fill:#ececec"
         id="path4161" />
      <path
         d="m 90.216278,1027.9046 0,2.7379 q -1.59828,-0.7644 -3.015884,-1.1397 -1.417604,-0.3752 -2.737922,-0.3752 -2.293183,0 -3.544011,0.8895 -1.236929,0.8894 -1.236929,2.5294 0,1.3759 0.819987,2.0847 0.833885,0.6949 3.140966,1.1258 l 1.695566,0.3474 q 3.140966,0.5976 4.628061,2.1125 1.500993,1.501 1.500993,4.0305 0,3.0159 -2.02912,4.5724 -2.015222,1.5566 -5.920583,1.5566 -1.473196,0 -3.140966,-0.3335 -1.653872,-0.3336 -3.432826,-0.9868 l 0,-2.8908 q 1.709464,0.959 3.349438,1.4454 1.639973,0.4864 3.224354,0.4864 2.404369,0 3.710788,-0.945 1.30642,-0.9451 1.30642,-2.6962 0,-1.5288 -0.94507,-2.3905 -0.931171,-0.8617 -3.071476,-1.2925 l -1.709464,-0.3336 q -3.140966,-0.6254 -4.544672,-1.9596 -1.403706,-1.3342 -1.403706,-3.7108 0,-2.7518 1.931833,-4.3362 1.945731,-1.5844 5.350761,-1.5844 1.459299,0 2.974189,0.2641 1.514891,0.264 3.099273,0.7922 z"
         style="letter-spacing:0.71158189px;fill:#ececec"
         id="path4163" />
      <path
         d="m 96.445401,1032.4075 2.557247,0 0,15.5659 -2.557247,0 0,-15.5659 z m 0,-6.0595 2.557247,0 0,3.2382 -2.557247,0 0,-3.2382 z"
         style="letter-spacing:0.71158189px;fill:#ececec"
         id="path4165" />
      <path
         d="m 115.29398,1034.7702 0,-8.4222 2.55724,0 0,21.6254 -2.55724,0 0,-2.3349 q -0.80609,1.3898 -2.04302,2.0708 -1.22303,0.6671 -2.94639,0.6671 -2.82131,0 -4.60027,-2.2515 -1.76506,-2.2514 -1.76506,-5.9205 0,-3.6691 1.76506,-5.9206 1.77896,-2.2515 4.60027,-2.2515 1.72336,0 2.94639,0.681 1.23693,0.6671 2.04302,2.0569 z m -8.7141,5.4342 q 0,2.8213 1.15354,4.4334 1.16744,1.5983 3.19656,1.5983 2.02912,0 3.19656,-1.5983 1.16744,-1.6121 1.16744,-4.4334 0,-2.8213 -1.16744,-4.4196 -1.16744,-1.6122 -3.19656,-1.6122 -2.02912,0 -3.19656,1.6122 -1.15354,1.5983 -1.15354,4.4196 z"
         style="letter-spacing:0.71158189px;fill:#ececec"
         id="path4167" />
      <path
         d="m 137.14454,1039.5512 0,1.2508 -11.75777,0 q 0.16677,2.6406 1.58438,4.0304 1.4315,1.3759 3.97485,1.3759 1.4732,0 2.84911,-0.3613 1.3898,-0.3614 2.75182,-1.0841 l 0,2.4183 q -1.37591,0.5837 -2.82131,0.8895 -1.4454,0.3057 -2.9325,0.3057 -3.72469,0 -5.90668,-2.1681 -2.1681,-2.1681 -2.1681,-5.865 0,-3.8219 2.05691,-6.0595 2.07082,-2.2515 5.57313,-2.2515 3.14097,0 4.96162,2.0291 1.83454,2.0152 1.83454,5.4898 z m -2.55724,-0.7505 q -0.0278,-2.0987 -1.18134,-3.3495 -1.13964,-1.2508 -3.02978,-1.2508 -2.14031,0 -3.43283,1.2091 -1.27862,1.2092 -1.47319,3.4051 l 9.11714,-0.014 z"
         style="letter-spacing:0.71158189px;fill:#ececec"
         id="path4169" />
      <path
         d="m 153.2274,1040.2044 q 0,-2.8213 -1.16744,-4.4196 -1.15354,-1.6122 -3.18266,-1.6122 -2.02912,0 -3.19656,1.6122 -1.15354,1.5983 -1.15354,4.4196 0,2.8213 1.15354,4.4334 1.16744,1.5983 3.19656,1.5983 2.02912,0 3.18266,-1.5983 1.16744,-1.6121 1.16744,-4.4334 z m -8.7002,-5.4342 q 0.80609,-1.3898 2.02912,-2.0569 1.23693,-0.681 2.94639,-0.681 2.83521,0 4.60027,2.2515 1.77895,2.2515 1.77895,5.9206 0,3.6691 -1.77895,5.9205 -1.76506,2.2515 -4.60027,2.2515 -1.70946,0 -2.94639,-0.6671 -1.22303,-0.681 -2.02912,-2.0708 l 0,2.3349 -2.57114,0 0,-21.6254 2.57114,0 0,8.4222 z"
         style="letter-spacing:0.71158189px;fill:#ececec"
         id="path4171" />
      <path
         d="m 167.90655,1040.1488 q -3.09927,0 -4.29451,0.7088 -1.19523,0.7088 -1.19523,2.4182 0,1.362 0.88947,2.1681 0.90338,0.7922 2.44607,0.7922 2.1264,0 3.40503,-1.501 1.29252,-1.5149 1.29252,-4.0165 l 0,-0.5698 -2.54335,0 z m 5.10059,-1.0563 0,8.8809 -2.55724,0 0,-2.3627 q -0.87558,1.4176 -2.182,2.0986 -1.30642,0.6671 -3.19656,0.6671 -2.39047,0 -3.80807,-1.3342 -1.40371,-1.3481 -1.40371,-3.5996 0,-2.6267 1.75116,-3.9609 1.76505,-1.3343 5.25347,-1.3343 l 3.58571,0 0,-0.2501 q 0,-1.7651 -1.16744,-2.724 -1.15354,-0.9729 -3.25215,-0.9729 -1.33422,0 -2.59894,0.3196 -1.26473,0.3197 -2.43217,0.959 l 0,-2.3627 q 1.40371,-0.542 2.72403,-0.806 1.32031,-0.278 2.57114,-0.278 3.37723,0 5.045,1.7511 1.66777,1.7512 1.66777,5.3091 z"
         style="letter-spacing:0.71158189px;fill:#ececec"
         id="path4173" />
      <path
         d="m 188.01985,1034.798 q -0.43084,-0.2502 -0.94507,-0.3613 -0.50033,-0.1251 -1.11184,-0.1251 -2.1681,0 -3.33554,1.4176 -1.15354,1.4037 -1.15354,4.0443 l 0,8.1999 -2.57115,0 0,-15.5659 2.57115,0 0,2.4183 q 0.80608,-1.4176 2.09861,-2.0986 1.29252,-0.6949 3.14096,-0.6949 0.26407,0 0.58372,0.042 0.31966,0.028 0.7088,0.097 l 0.0139,2.6267 z"
         style="letter-spacing:0.71158189px;fill:#ececec"
         id="path4175" />
    </g>
  </g>
</svg>
